<?xml version="1.0" encoding="utf-8"?>
<!-- Generator: Adobe Illustrator 24.1.2, SVG Export Plug-In . SVG Version: 6.00 Build 0)  -->
<svg version="1.1" id="Слой_1" xmlns="http://www.w3.org/2000/svg" xmlns:xlink="http://www.w3.org/1999/xlink" x="0px" y="0px"
	 viewBox="0 0 800 800" style="enable-background:new 0 0 800 800;" xml:space="preserve">
<path d="M233.3,600c-8.5,0-17.1-3.3-23.6-9.8c-13-13-13-34.1,0-47.1l333.3-333.3c13-13,34.1-13,47.1,0c13,13,13,34.1,0,47.1
	L256.9,590.2C250.4,596.7,241.9,600,233.3,600z"/>
<path d="M566.7,600c-18.4,0-33.3-14.9-33.3-33.3v-300h-300c-18.4,0-33.3-14.9-33.3-33.3c0-18.4,14.9-33.3,33.3-33.3h333.3
	c18.4,0,33.3,14.9,33.3,33.3v333.3C600,585.1,585.1,600,566.7,600z"/>
</svg>
